<?xml version="1.0" encoding="UTF-8"?>
<svg id="Capa_2" data-name="Capa 2" xmlns="http://www.w3.org/2000/svg" viewBox="0 0 864.97 840">
  <defs>
    <style>
      .cls-1 {
        fill: #777;
      }

      .cls-1, .cls-2, .cls-3 {
        stroke-width: 0px;
      }

      .cls-2 {
        fill: #080717;
      }

      .cls-3 {
        fill: #fff;
      }
    </style>
  </defs>
  <g id="Capa_1-2" data-name="Capa 1">
    <g id="_Layer_" data-name="&amp;lt;Layer&amp;gt;">
      <g>
        <g>
          <path class="cls-3" d="m3.54,823.54l22.87-261.65c6.7-76.46,63.74-138.98,139.27-152.63l132-23.84,374.31,278.65-11.4,163.32-657.05-3.85Z"/>
          <path class="cls-2" d="m660.59,830.91h-.25c-1.96-.14-3.46-1.85-3.31-3.81l11.26-161.36-371.49-276.58-130.47,23.59c-73.75,13.32-129.83,74.78-136.35,149.46L7.1,823.86c-.18,1.96-1.89,3.42-3.85,3.24-1.96-.18-3.42-1.89-3.24-3.85l22.87-261.65c6.8-77.85,65.27-141.94,142.19-155.84l132-23.84c.96-.18,1.96.07,2.74.64l374.31,278.65c.96.71,1.5,1.89,1.43,3.1l-11.4,163.32c-.14,1.82-1.71,3.28-3.56,3.28Z"/>
        </g>
        <g>
          <circle class="cls-2" cx="392.81" cy="71.11" r="71.11"/>
          <g>
            <path class="cls-3" d="m213.64,391.48l48.45-152.67,125.23,39.73-43.64,137.49c18.06,19.27,29.71,41.22,17.49,60.32-29.89,46.78-115.68,0-153.38-33.81l-37.69-33.81,43.54-17.24Z"/>
            <path class="cls-2" d="m321.66,499.68c-40.26,0-91.6-32.31-116.25-54.44l-37.69-33.81c-.93-.82-1.35-2.07-1.14-3.28s1.03-2.24,2.17-2.67l41.97-16.67,47.92-151.06c.61-1.89,2.6-2.92,4.49-2.32l125.23,39.73c.89.29,1.64.93,2.1,1.75.43.86.53,1.82.25,2.71l-43,135.56c22.2,24.3,27.75,45.53,16.5,63.13-7.52,11.79-18.78,18.78-33.42,20.77-2.96.43-6.02.61-9.12.61Zm-144.9-89.68l33.42,29.96c48.24,43.25,98.97,54.9,119.64,52.09,12.47-1.71,22.02-7.62,28.4-17.56,9.51-14.89,3.74-33.7-17.1-55.97-.89-.93-1.18-2.28-.78-3.53l42.54-134.1-118.5-37.59-47.35,149.28c-.32,1.03-1.1,1.85-2.07,2.24l-38.19,15.18Z"/>
          </g>
          <path class="cls-2" d="m238.65,325.85l33.17-88,118.64,43.47-36.91,114.29c-42.65,2.6-84.47-33.56-114.9-69.76Z"/>
          <g>
            <path class="cls-3" d="m179.29,187.97c-5.31-71.97,43.07-138.63,115.61-154.2l25.58-5.49c56.76-12.18,112.62,23.94,124.8,80.7l25.47,118.68c12.18,56.76-23.94,112.62-80.7,124.8l-20.31,4.35c-67.3,14.43-133.71-18.03-165.28-75.35-12.36,4.03-26.33,3.14-38.59-3.71-23.41-13.04-31.85-42.58-18.81-65.98,7.09-12.72,19.03-20.98,32.21-23.8Z"/>
            <path class="cls-2" d="m338.34,363.69c-54.97,0-107.56-29.39-135.56-78.03-12.97,3.42-26.9,1.71-38.62-4.81-12.15-6.77-20.95-17.85-24.76-31.25-3.81-13.4-2.17-27.43,4.56-39.62,6.77-12.18,18.17-21.09,31.57-24.8-3.92-73.18,46.6-139.45,118.61-154.91l25.58-5.49c28.36-6.09,57.43-.75,81.8,15,24.37,15.75,41.15,40.08,47.24,68.44l25.47,118.68c12.58,58.57-24.87,116.47-83.44,129.01l-20.31,4.35c-10.69,2.32-21.45,3.42-32.14,3.42Zm-133.85-85.79c1.28,0,2.49.68,3.14,1.85,31.39,56.97,97.76,87.25,161.39,73.57l20.31-4.35c54.72-11.76,89.71-65.84,77.95-120.56l-25.47-118.68c-5.7-26.51-21.38-49.24-44.14-63.95-22.77-14.71-49.91-19.7-76.42-14l-25.58,5.49c-69.55,14.93-118.04,79.59-112.8,150.42.14,1.78-1.07,3.38-2.81,3.74-12.68,2.74-23.59,10.8-29.86,22.05-5.84,10.51-7.23,22.62-3.95,34.2,3.28,11.54,10.9,21.13,21.38,26.97,11.01,6.13,23.69,7.34,35.77,3.42.36-.14.75-.18,1.1-.18Z"/>
          </g>
          <path class="cls-1" d="m458.94,245.76c-5.45,0-10.9-.89-16.25-2.67-26.61-8.91-40.97-37.84-32.07-64.42h0c8.94-26.61,37.84-40.97,64.42-32.07,12.9,4.31,23.34,13.4,29.39,25.58,6.06,12.18,7.02,25.97,2.67,38.87-4.31,12.9-13.4,23.34-25.58,29.39-7.09,3.53-14.82,5.31-22.59,5.31Zm-41.54-64.84c-7.66,22.87,4.7,47.74,27.58,55.4,11.08,3.71,22.94,2.89,33.42-2.32s18.28-14.18,21.98-25.26,2.89-22.94-2.32-33.42c-5.2-10.47-14.18-18.28-25.26-21.98-22.87-7.66-47.71,4.7-55.4,27.58h0Z"/>
          <path class="cls-1" d="m349.2,256.49c-5.34,0-10.8-.86-16.14-2.64-12.9-4.31-23.34-13.4-29.39-25.58s-7.02-25.97-2.67-38.87h0c4.31-12.9,13.4-23.34,25.58-29.39,12.18-6.06,25.97-7.02,38.87-2.67,26.61,8.91,40.97,37.84,32.07,64.42-7.13,21.31-27.01,34.74-48.31,34.74Zm0-94.66c-6.66,0-13.32,1.53-19.45,4.6-10.47,5.2-18.28,14.18-21.98,25.26h0c-3.71,11.08-2.89,22.94,2.32,33.42s14.18,18.28,25.26,21.98c22.87,7.66,47.74-4.7,55.4-27.58s-4.7-47.74-27.58-55.4c-4.56-1.53-9.26-2.28-13.97-2.28Z"/>
          <path class="cls-1" d="m232.74,212.91c-1.75,0-3.28-1.28-3.53-3.06-.29-1.96,1.07-3.74,3.03-4.03l69.62-9.98c1.92-.29,3.74,1.07,4.03,3.03.29,1.96-1.07,3.74-3.03,4.03l-69.62,9.98c-.18,0-.32.04-.5.04Z"/>
          <path class="cls-1" d="m396.34,195.17c-1.64,0-3.14-1.14-3.49-2.81-.39-1.92.82-3.81,2.74-4.24l16.71-3.53c1.92-.43,3.81.82,4.24,2.74.39,1.92-.82,3.81-2.74,4.24l-16.71,3.53c-.25.04-.5.07-.75.07Z"/>
          <path class="cls-2" d="m363.49,204.01c1.07,7.84,5.99,13.61,10.94,12.93,4.99-.68,8.16-7.59,7.09-15.39-1.07-7.84-5.99-13.61-10.94-12.93-4.99.68-8.16,7.59-7.09,15.39Z"/>
          <path class="cls-2" d="m429.79,194.92c1.07,7.84,5.99,13.61,10.94,12.93,4.99-.68,8.16-7.59,7.09-15.39-1.07-7.84-5.99-13.61-10.94-12.93-4.99.68-8.16,7.55-7.09,15.39Z"/>
          <path class="cls-2" d="m411.02,274.69c-7.95,0-16.92-2.81-23.84-11.94-1.18-1.57-.89-3.81.68-4.99s3.81-.89,4.99.68c11.69,15.32,29.32,6.8,30.07,6.45,1.75-.86,3.88-.14,4.77,1.6s.18,3.88-1.57,4.77c-3.53,1.75-9.01,3.42-15.11,3.42Z"/>
          <path class="cls-2" d="m317.1,154.87c-.86,0-1.71-.32-2.42-.93-1.46-1.32-1.53-3.6-.21-5.02,18.46-20.13,48.92-14.39,50.2-14.14,1.92.39,3.17,2.24,2.81,4.17-.39,1.92-2.24,3.21-4.17,2.81-.29-.04-27.86-5.17-43.57,11.97-.71.75-1.67,1.14-2.64,1.14Z"/>
          <path class="cls-2" d="m420.71,144.36c-1.07,0-2.14-.5-2.85-1.43-1.18-1.57-.86-3.81.71-4.99.89-.68,22.05-16.25,47.85-6.13,1.82.71,2.74,2.78,2.03,4.63-.71,1.82-2.78,2.74-4.63,2.03-22.02-8.62-40.22,4.63-40.97,5.2-.64.46-1.39.68-2.14.68Z"/>
          <path class="cls-2" d="m219.3,253.03c-1.89,0-3.46-1.5-3.56-3.38,0-.21-1.21-21.84-13.47-32.42-5.24-4.49-11.86-6.38-19.77-5.56-1.96.18-3.71-1.21-3.92-3.17-.21-1.96,1.21-3.71,3.17-3.92,9.9-1,18.38,1.43,25.15,7.27,14.61,12.58,15.89,36.45,15.93,37.44.11,1.96-1.43,3.63-3.38,3.71,0,.04-.07.04-.14.04Z"/>
          <path class="cls-2" d="m238.26,61.28c-1.71,0-3.21-1.21-3.49-2.92-3.67-20.34,17.78-33.78,18.7-34.35,1.67-1.03,3.85-.5,4.88,1.18s.5,3.88-1.18,4.92c-.18.11-18.21,11.47-15.43,27.01.36,1.92-.93,3.78-2.89,4.13-.18,0-.39.04-.61.04Z"/>
          <path class="cls-2" d="m235.73,52.41c-1.57,0-2.99-1.03-3.42-2.6-2.1-7.41-8.05-7.34-8.69-7.27-1.92.04-3.63-1.35-3.78-3.31s1.32-3.63,3.24-3.78c4.24-.32,13.04,1.82,16.07,12.43.53,1.89-.57,3.88-2.46,4.42-.29.07-.64.11-.96.11Z"/>
          <path class="cls-2" d="m275.03,117c0-33.92,15.28-64.74,40.12-87.54l-63.06,13.54c-55.62,11.9-91.06,66.7-79.09,122.35l4.92,22.94c11.51-2.85,24.05-1.53,35.2,4.67,20.95,11.65,29.86,36.55,22.16,58.43,12.61-2.24,21.2-14.11,19.31-26.83l-4.92-33.1,6.95-7.23c10.72-11.15,17.03-25.87,17.71-41.33l.93-20.74c-.14-1.75-.21-3.46-.21-5.17Z"/>
          <circle class="cls-2" cx="336.13" cy="48.49" r="46"/>
          <circle class="cls-2" cx="286.96" cy="87.25" r="48.81"/>
        </g>
        <g>
          <path class="cls-1" d="m481.46,773.3c19.06.61,36.2-7.66,47.74-20.91,2.42-2.78,5.95-4.38,9.62-4.38h.25c7.48,0,13.5,6.02,13.5,13.47v78.52h198.88c30.93,0,56.01-25.08,56.01-56.01v-198.88h-254.88v78.52c0,7.45-6.02,13.47-13.47,13.47h0c-3.92,0-7.59-1.75-10.19-4.7-11.12-12.61-27.4-20.63-45.53-20.63-34.56,0-62.35,28.82-60.71,63.74,1.46,31.28,27.47,56.83,58.79,57.79Z"/>
          <path class="cls-2" d="m740.76,655.41c.57-18.99-7.55-36.02-20.7-47.56-2.92-2.57-4.6-6.2-4.6-10.08h0c0-7.45,6.02-13.47,13.47-13.47h78.52v-198.88c0-30.93-25.08-56.01-56.01-56.01h-198.88v254.88h78.52c7.45,0,13.47,6.02,13.47,13.47h0c0,3.92-1.75,7.59-4.7,10.19-12.61,11.12-20.63,27.4-20.63,45.53,0,34.56,28.82,62.35,63.74,60.71,31.28-1.5,56.83-27.5,57.79-58.79Z"/>
          <g>
            <path class="cls-3" d="m623.68,396.08c-19.06-.61-36.2,7.66-47.74,20.91-2.42,2.78-5.95,4.38-9.62,4.38h-.25c-7.48,0-13.5-6.02-13.5-13.47v-78.52h-198.88c-30.93,0-56.01,25.08-56.01,56.01v198.88h83.08c5.2-1.89,8.91-6.8,8.91-12.61h0c0-3.88-1.67-7.52-4.6-10.08-13.15-11.51-21.31-28.57-20.7-47.56.96-31.32,26.51-57.29,57.79-58.79,34.92-1.67,63.74,26.15,63.74,60.71,0,17.96-7.8,34.02-20.17,45.14-2.57,2.32-4.56,5.31-5.02,8.69-.89,6.63,3.06,12.43,8.8,14.5h83.08v-77.85c0-5.88,3.46-11.44,9.01-13.36,5.49-1.89,11.08-.11,14.64,3.95,11.12,12.61,27.4,20.63,45.53,20.63,34.56,0,62.35-28.82,60.71-63.74-1.53-31.32-27.5-56.83-58.82-57.82Z"/>
            <path class="cls-2" d="m552.57,587.83h-83.08c-.43,0-.82-.07-1.21-.21-7.62-2.74-12.22-10.3-11.12-18.35.53-3.99,2.67-7.73,6.16-10.87,12.08-10.83,18.99-26.33,18.99-42.5s-6.31-30.5-17.74-41.4c-11.44-10.9-26.44-16.46-42.25-15.75-29.57,1.43-53.48,25.72-54.37,55.33-.53,17.14,6.59,33.45,19.49,44.75,3.67,3.24,5.81,7.87,5.81,12.75,0,7.13-4.52,13.57-11.26,16-.39.14-.78.21-1.21.21h-83.08c-1.96,0-3.56-1.6-3.56-3.56v-198.88c0-32.85,26.72-59.57,59.57-59.57h198.88c1.96,0,3.56,1.6,3.56,3.56v78.52c0,5.45,4.45,9.9,9.94,9.9,2.92,0,5.45-1.14,7.2-3.17,12.75-14.64,31.17-22.59,50.52-22.12h0c33.31,1.03,60.64,27.9,62.24,61.17.86,17.81-5.45,34.67-17.71,47.53-12.26,12.86-28.79,19.95-46.57,19.95s-35.98-7.95-48.2-21.84c-2.78-3.17-6.91-4.28-10.8-2.92-3.92,1.35-6.63,5.49-6.63,10.01v77.85c0,2.03-1.6,3.6-3.56,3.6Zm-82.41-7.13h78.84v-74.28c0-7.62,4.6-14.36,11.44-16.75,6.56-2.28,13.82-.36,18.49,4.95,10.87,12.33,26.51,19.42,42.86,19.42s30.5-6.31,41.4-17.74c10.9-11.44,16.5-26.44,15.75-42.25-1.39-29.57-25.72-53.48-55.33-54.37-17.21-.64-33.6,6.63-44.93,19.67-3.1,3.56-7.59,5.63-12.33,5.63-9.66,0-17.32-7.62-17.32-17.03v-75h-195.38c-28.93,0-52.44,23.51-52.44,52.44v195.31h78.84c3.63-1.57,6.02-5.13,6.02-9.05,0-2.85-1.25-5.52-3.38-7.41-14.54-12.72-22.52-31.07-21.91-50.34,1.03-33.31,27.9-60.64,61.17-62.24,17.78-.82,34.67,5.45,47.53,17.71,12.86,12.26,19.95,28.79,19.95,46.57s-7.77,35.59-21.34,47.78c-1.57,1.39-3.49,3.67-3.88,6.56-.61,4.45,1.82,8.69,5.95,10.44Z"/>
          </g>
          <path class="cls-2" d="m364.38,514c-.61,19.06,7.66,36.2,20.91,47.74,2.78,2.42,4.38,5.95,4.38,9.62v.25c0,7.48-6.02,13.5-13.47,13.5h-78.52v198.88c0,30.93,25.08,56.01,56.01,56.01h198.88v-254.88h-78.52c-7.45,0-13.47-6.02-13.47-13.47h0c0-3.92,1.75-7.59,4.7-10.19,12.61-11.12,20.63-27.4,20.63-45.53,0-34.56-28.82-62.35-63.74-60.71-31.28,1.5-56.83,27.47-57.79,58.79Z"/>
        </g>
        <g>
          <g>
            <path class="cls-3" d="m830.64,442.61l18.17-9.76c6.52-3.49,10.4-9.26,10.4-15.39v-19.84c0-7.3-5.52-13.97-14.14-17.03l-23.91-8.52c-6.88-2.46-14.82-2.28-21.52.43l-37.09,15.07v26.08c0,6.63,4.56,12.79,11.94,16.14l29.82,13.61c8.27,3.71,18.53,3.42,26.33-.78Z"/>
            <path class="cls-2" d="m816.71,449.52c-4.77,0-9.58-.96-13.82-2.92l-29.82-13.61c-8.66-3.95-14.04-11.37-14.04-19.38v-26.08c0-1.46.89-2.74,2.21-3.31l37.09-15.07c7.55-3.06,16.32-3.24,24.05-.5l23.91,8.52c10.01,3.56,16.5,11.58,16.5,20.38v19.84c0,7.48-4.6,14.39-12.29,18.53l-18.17,9.76h0c-4.63,2.57-10.12,3.85-15.61,3.85Zm-50.56-59.61v23.69c0,5.2,3.78,10.12,9.87,12.9l29.82,13.61c7.2,3.28,16.28,3.03,23.12-.64l18.17-9.76c5.34-2.89,8.55-7.45,8.55-12.26v-19.84c0-5.77-4.63-11.15-11.76-13.68l-23.91-8.52c-6.02-2.14-13.11-2-18.99.39l-34.88,14.11Z"/>
          </g>
          <g>
            <path class="cls-3" d="m811.83,462.2l-.36,34.24,29.71-21.91c11.47-8.48,18.6-19.84,20.09-32.03h0c1.32-10.87-7.2-20.98-20.59-24.48l-114.08-31.14-1.71,22.55c-.89,11.65,7.2,22.66,20.63,28.04l66.3,24.73Z"/>
            <path class="cls-2" d="m811.48,500c-.57,0-1.1-.14-1.64-.39-1.21-.61-1.96-1.85-1.92-3.21l.32-31.74-63.99-23.84c-14.96-6.02-23.94-18.42-22.91-31.64l1.71-22.55c.07-1.07.64-2.03,1.5-2.64s1.96-.78,2.99-.53l114.08,31.14c15.18,3.95,24.73,15.61,23.19,28.32-1.6,13.18-9.23,25.4-21.52,34.45l-29.71,21.91c-.61.46-1.35.71-2.1.71Zm-81.66-108.52l-1.39,18.24c-.78,10.08,6.45,19.67,18.38,24.48l66.27,24.69c1.43.53,2.32,1.89,2.32,3.38l-.29,27.08,23.94-17.67c10.69-7.87,17.32-18.38,18.67-29.57,1.1-9.09-6.27-17.53-17.96-20.59l-109.95-30.03Z"/>
          </g>
          <g>
            <path class="cls-3" d="m811.37,507.23l-.36,34.24,29.71-21.91c11.47-8.48,18.6-19.84,20.09-32.03h0c1.32-10.87-7.2-20.98-20.59-24.48l-104.39-28.15-1.71,22.55c-.89,11.65,7.2,22.66,20.63,28.04l56.61,21.73Z"/>
            <path class="cls-2" d="m811.05,545.04c-.57,0-1.1-.14-1.64-.39-1.21-.61-1.96-1.85-1.92-3.21l.32-31.78-54.33-20.84c-14.93-5.99-23.91-18.42-22.91-31.64l1.71-22.55c.07-1.07.64-2.03,1.5-2.64s1.96-.82,2.99-.53l104.39,28.15c15.18,3.95,24.73,15.61,23.19,28.32-1.6,13.18-9.23,25.4-21.52,34.45l-29.71,21.91c-.61.53-1.32.75-2.07.75Zm-71.97-105.53l-1.39,18.24c-.78,10.08,6.45,19.67,18.38,24.48l56.58,21.7c1.39.53,2.32,1.89,2.28,3.35l-.29,27.08,23.94-17.67c10.69-7.87,17.32-18.38,18.67-29.57,1.1-9.09-6.27-17.56-17.96-20.59l-100.22-27.01Z"/>
          </g>
          <g>
            <path class="cls-3" d="m810.94,550.02l-.36,34.24,29.71-21.91c11.47-8.48,18.6-19.84,20.09-32.03h0c1.32-10.87-7.2-20.98-20.59-24.48l-90.6-23.62-1.71,22.55c-.89,11.65,7.2,22.66,20.63,28.04l42.82,17.21Z"/>
            <path class="cls-2" d="m810.62,587.83c-.57,0-1.1-.14-1.64-.39-1.21-.61-1.96-1.85-1.92-3.21l.32-31.82-40.58-16.28c-14.89-5.99-23.84-18.38-22.84-31.6l1.71-22.55c.07-1.07.61-2.03,1.5-2.64.86-.61,1.96-.82,2.96-.53l90.6,23.62c15.21,3.95,24.76,15.61,23.23,28.36-1.6,13.18-9.23,25.4-21.52,34.45l-29.71,21.91c-.61.46-1.35.68-2.1.68Zm-58.18-101.04l-1.39,18.28c-.78,10.08,6.45,19.67,18.38,24.48l42.82,17.21c1.35.53,2.24,1.89,2.24,3.35l-.29,27.08,23.94-17.67c10.69-7.87,17.32-18.38,18.67-29.57,1.1-9.09-6.27-17.56-17.96-20.59l-86.43-22.55Z"/>
          </g>
        </g>
        <g>
          <path class="cls-3" d="m281.87,729.59l-25.69,88.89s-84.94-21.02-98.08-79.06c-13.15-58.04-15.57-149.64,32.1-166.92,47.67-17.28,128.19-.46,128.19-.46,0,0,11.01,18.28-13.47,31.6-24.48,13.32-33.7,23.19-33.7,23.19l68.19,2.74s6.06,11.61-.11,29.89c-6.16,18.28-7.34,48.38-57.43,70.12Z"/>
          <path class="cls-2" d="m268.72,821.79c-.21,0-.43,0-.64-.07-1.03-.18-25.55-4.67-51.87-16.78-35.41-16.32-56.72-38.73-61.64-64.84-23.62-125.02,11.26-160.72,34.13-170.84,48.45-21.48,127.19-1.53,130.54-.64,1.1.29,2,1.07,2.42,2.1.29.75,7.3,18.24.75,30.85-2.99,5.74-8.19,9.48-15.5,11.15-10.12,2.28-23.91,2.39-37.23,2.46-18.95.11-40.44.25-46.57,7.38-1.28,1.5-3.53,1.67-5.02.39s-1.67-3.53-.39-5.02c8.27-9.62,29.46-9.73,51.91-9.83,12.97-.07,26.33-.14,35.7-2.28,5.2-1.18,8.73-3.63,10.72-7.48,3.74-7.16,1.35-17.96-.43-23.19-12.04-2.85-81.77-18.03-124.09.71-50.66,22.45-37.87,121.49-30.03,163,10.94,57.86,106.81,75.78,107.77,75.96,1.92.36,3.21,2.21,2.89,4.13-.21,1.64-1.71,2.85-3.42,2.85Z"/>
          <path class="cls-2" d="m335.2,657.48c-1.21,0-2.42-.64-3.1-1.78-1-1.71-.43-3.88,1.28-4.88,12.54-7.3,7.23-22.77,4.85-28.25l-152.59,3.85c-1.96,0-3.6-1.5-3.63-3.46-.04-1.96,1.5-3.6,3.46-3.67l154.91-3.92c1.46.04,2.6.71,3.24,1.89,5.02,9.48,10.15,29.93-6.63,39.69-.53.39-1.18.53-1.78.53Z"/>
          <path class="cls-2" d="m194.61,714.63c-1.75,0-3.28-1.28-3.53-3.06-.29-1.96,1.07-3.74,3.03-4.03,1.14-.14,113.72-16.03,130.43-21.09,11.04-3.35,13.89-19.6,14.61-27.18l-153.66,11.4c-1.92.18-3.67-1.32-3.81-3.28s1.32-3.67,3.28-3.81l157.72-11.69c1-.07,1.96.29,2.71.96.71.68,1.14,1.64,1.14,2.64,0,1.32-.5,31.96-19.95,37.84-17.21,5.2-126.84,20.66-131.47,21.34-.14-.07-.32-.04-.5-.04Z"/>
          <path class="cls-2" d="m208.62,751.04c-1.85,0-3.38-1.43-3.56-3.28-.14-1.96,1.28-3.67,3.28-3.85.29-.04,28.04-2.35,55.79-10.4,24.8-7.2,54.72-20.49,56.43-42.97.14-1.96,1.85-3.42,3.81-3.28,1.96.14,3.42,1.85,3.28,3.81-3.74,49.99-114.05,59.57-118.75,59.93-.11.04-.21.04-.28.04Z"/>
        </g>
      </g>
    </g>
  </g>
</svg>