<?xml version="1.0" encoding="UTF-8"?>
<svg id="Capa_2" data-name="Capa 2" xmlns="http://www.w3.org/2000/svg" viewBox="0 0 1145.61 840">
  <defs>
    <style>
      .cls-1, .cls-2, .cls-3, .cls-4, .cls-5 {
        stroke-width: 0px;
      }

      .cls-2 {
        fill: #777;
      }

      .cls-3 {
        fill: #080717;
      }

      .cls-4 {
        fill: #fff;
      }

      .cls-5 {
        fill: #070a17;
      }
    </style>
  </defs>
  <g id="Capa_1-2" data-name="Capa 1">
    <g id="_Layer_" data-name="&amp;lt;Layer&amp;gt;">
      <g>
        <g>
          <g>
            <rect class="cls-1" x="376.11" y="541.02" width="288.53" height="50.24"/>
            <rect class="cls-1" x="386.67" y="427.86" width="267.41" height="113.16"/>
            <rect class="cls-1" x="386.67" y="427.86" width="267.41" height="113.16"/>
            <path class="cls-2" d="m613.1,429.69c0-10.41-5.91-47.52-13.09-47.52h-159.23c-7.21,0-13.09,37.11-13.09,47.52h185.41Z"/>
            <path class="cls-2" d="m540.03,287.86c70.43-40.76,117.88-117.25,117.88-205.01,0-24.51-3.76-60.61-10.64-82.85h-253.76c-6.92,22.24-10.64,58.35-10.64,82.85,0,87.76,47.49,164.25,117.88,205.01v93.78l39.27-93.78Z"/>
            <path class="cls-4" d="m437.06,152.05c-6.17-21.27-9.3-43.4-9.3-65.71,0-14.87,1.41-29.79,4.2-44.33l14.61,2.79c-2.6,13.65-3.94,27.63-3.94,41.54,0,20.94,2.94,41.65,8.7,61.58l-14.28,4.13Z"/>
            <rect class="cls-4" x="460.82" y="484.16" width="119.14" height="14.87"/>
            <rect class="cls-2" x="497.6" y="273.62" width="45.59" height="132.57"/>
          </g>
          <g>
            <path class="cls-2" d="m562,264.06l-3.64-18.22,79.28-15.84c41.98-8.4,72.48-45.59,72.48-88.39V41.35h-105.35v-18.59h123.94v118.85c0,51.65-36.78,96.5-87.42,106.61l-79.28,15.84Z"/>
            <path class="cls-2" d="m478.74,264.06l-79.28-15.84c-50.65-10.11-87.39-54.96-87.39-106.61V22.76h123.94v18.59h-105.35v100.25c0,42.8,30.49,79.99,72.48,88.39l79.28,15.84-3.68,18.22Z"/>
          </g>
        </g>
        <path class="cls-2" d="m1139.43,832.56h-312.85l30.98-277.71c3.68-32.91,27.7-59.98,59.94-67.49h0c13.35-3.12,27.26-2.68,40.38,1.3l98.69,29.82,89.02,65.52s-7.4,249.82-6.17,248.55Z"/>
        <g>
          <g>
            <path class="cls-4" d="m1091.69,539.87l19.26-210.44-106.46-9.74-16.44,179.61-11.83-2.08c-31.65,20.49-48.57,52.92-39.27,81.7,11.86,36.81,61.92,53.62,111.78,37.56,31.39-10.11,55.22-30.83,65.63-53.99l-22.68-22.61Z"/>
            <path class="cls-3" d="m1010.99,626.22c-36.89,0-68.31-17.29-77.61-46.19-9.48-29.49,6.92-64.03,40.79-85.97.78-.52,1.75-.71,2.68-.52l7.85,1.38,16.06-175.59c.19-2.05,1.97-3.53,4.05-3.38l106.46,9.74c2.05.19,3.53,2.01,3.35,4.05l-19.08,208.69,21.42,21.38c1.08,1.08,1.41,2.75.78,4.16-11.23,24.99-36.63,45.93-67.86,56-13.16,4.24-26.37,6.25-38.9,6.25Zm-33.99-125.09c-30.23,20.12-44.88,50.76-36.55,76.64,11.19,34.81,59.27,50.57,107.1,35.14,28.3-9.11,51.39-27.59,62.29-49.68l-20.79-20.75c-.78-.78-1.19-1.86-1.08-2.97l18.89-206.72-99.06-9.07-16.1,175.93c-.11,1.04-.63,1.97-1.45,2.6s-1.9.89-2.9.71l-10.34-1.82Z"/>
          </g>
          <path class="cls-3" d="m1032.45,204.12l-4.13,16.36c-2.38.04-4.72.26-7.03.56-5.13,16.59-7.96,34.43-7.96,53.06,0,57.79,39.57,131.97,89.02,133.61,3.31,0,41.13-42.91,40.24-82.52l-.37-16.25c-1.38-59.01-50.76-106.17-109.77-104.83Z"/>
          <path class="cls-3" d="m1063.72,326.16c-3.27-30.68-24.91-57.6-53.92-64.03h0c-18.07-3.98-35.4.78-48.45,11.64,8.26-1.71,31.79-5.24,40.83,8.22,11.12,16.44,22.57,50.8,61.54,44.18Z"/>
          <circle class="cls-3" cx="957.31" cy="279.62" r="43.03" transform="translate(82.67 758.82) rotate(-45)"/>
          <path class="cls-3" d="m1049.89,217.06c46.67,4.83,83.78,42.88,86.57,90.55-10.34,7.21-22.98,11.6-36.74,11.94-35.77.82-65.41-26.1-66.19-60.13-.37-16.21,5.88-31.09,16.36-42.36Z"/>
          <circle class="cls-3" cx="1031.15" cy="247.2" r="43.03" transform="translate(127.22 801.54) rotate(-45)"/>
          <path class="cls-3" d="m937.99,251.53c.56,24.43,20.82,43.77,45.26,43.21s43.77-20.82,43.21-45.26-20.82-43.77-45.26-43.21c-24.43.56-43.77,20.82-43.21,45.26Z"/>
          <path class="cls-3" d="m1097.34,250.78c-.3,0-.59-.04-.93-.11-2.01-.52-3.2-2.53-2.68-4.54,3.98-15.69,21.34-19.75,22.09-19.89,2.01-.45,3.98.82,4.43,2.83.45,2.01-.82,3.98-2.83,4.43-.26.07-13.65,3.31-16.51,14.47-.37,1.71-1.9,2.83-3.57,2.83Z"/>
          <path class="cls-3" d="m1095.59,249.78c-1.19,0-2.38-.56-3.09-1.64-1.15-1.71-.71-4.02,1-5.17,9.59-6.47,8.07-20.27,8.07-20.42-.26-2.05,1.23-3.9,3.24-4.13,2.05-.26,3.87,1.19,4.13,3.24.11.74,2.12,18.44-11.3,27.48-.63.41-1.34.63-2.05.63Z"/>
          <g>
            <path class="cls-4" d="m1086.81,348.7h0c-2.71-12.83-14.13-21.61-26.77-21.38-2.45-29.67-24.65-55.07-55.33-60.32h0c-36.41-6.25-70.95,18.22-77.2,54.59l-1.26,7.29c-7.36-.45-14.06,4.69-15.28,12.12h0c-1.19,7.36,3.38,14.32,10.41,16.32l-2.45,14.43c7.18,2.12,15.28,3.31,23.87,3.31,3.94,0,7.81-.26,11.53-.74-7.88,8-21.75,13.76-38.08,15.21-2.31,33.8,21.31,64.52,55.41,70.36,36.41,6.25,70.95-18.22,77.2-54.59l3.76-21.83,13.42-2.83c14.54-3.12,23.84-17.4,20.79-31.94Z"/>
            <path class="cls-3" d="m983.1,464.57c-4.02,0-8.03-.33-12.09-1.04-35.81-6.14-60.99-38.08-58.49-74.26.11-1.82,1.56-3.27,3.38-3.46,9.67-.86,18.67-3.35,25.84-7.03-8.29-.07-16.32-1.26-23.87-3.46-1.82-.52-2.94-2.34-2.6-4.2l1.97-11.45c-7.07-3.5-11.19-11.27-9.89-19.26,1.34-8.14,7.85-14.17,15.8-15.13l.74-4.28c3.2-18.59,13.42-34.81,28.82-45.7,15.4-10.9,34.1-15.13,52.69-11.94,30.64,5.24,54.11,29.86,58.08,60.43,13.16,1.26,24.28,11.01,27.03,24.21h0c1.67,8,.15,16.21-4.31,23.06s-11.34,11.56-19.37,13.24l-10.93,2.31-3.31,19.34c-3.2,18.59-13.42,34.81-28.78,45.7-12.16,8.48-26.25,12.94-40.72,12.94Zm-63.29-71.7c-.63,31.09,21.46,58.01,52.47,63.33,16.62,2.86,33.36-.97,47.12-10.67,13.76-9.74,22.91-24.25,25.77-40.87l3.76-21.83c.26-1.49,1.41-2.71,2.9-3.01l13.42-2.83c6.06-1.26,11.27-4.83,14.69-10.04,3.38-5.21,4.57-11.38,3.27-17.48-2.27-10.86-11.94-18.67-23.06-18.44-1.82.15-3.61-1.45-3.76-3.42-2.38-28.67-23.87-52.1-52.28-56.97-34.32-5.84-67.01,17.25-72.89,51.58l-1.23,7.29c-.33,1.86-1.93,3.16-3.9,3.09-5.54-.3-10.49,3.53-11.38,9-.89,5.39,2.45,10.64,7.73,12.12,1.82.52,2.97,2.34,2.64,4.2l-1.9,11.08c9.59,2.34,20.12,2.97,30.68,1.6,1.56-.19,3.09.63,3.79,2.05.71,1.41.45,3.12-.67,4.28-8.18,8.26-21.61,13.98-37.19,15.95Z"/>
          </g>
          <path class="cls-3" d="m1069.04,386.85c-1.71,0-3.27-1.19-3.64-2.94-.41-2.01.86-3.98,2.86-4.39,12.53-2.64,20.6-14.99,17.96-27.52-.41-2.01.86-3.98,2.86-4.39,2.01-.41,3.98.86,4.39,2.86,3.46,16.55-7.14,32.84-23.69,36.29-.26.07-.52.07-.74.07Z"/>
          <path class="cls-3" d="m1057.88,365.99c-1.9,0-3.53-1.45-3.72-3.42-1.15-13.72,10.41-19.56,10.9-19.82,1.82-.93,4.09-.15,4.98,1.67s.15,4.05-1.67,4.98c-.37.19-7.51,3.98-6.81,12.53.19,2.05-1.34,3.83-3.38,4.02-.07.04-.19.04-.3.04Z"/>
          <path class="cls-3" d="m943.24,330.25c-.04,3.76,2.42,6.81,5.54,6.84,3.09.04,5.65-2.97,5.69-6.73.04-3.76-2.42-6.81-5.54-6.84-3.09,0-5.62,2.97-5.69,6.73Z"/>
          <path class="cls-3" d="m950.42,307.23c-1.08,2.08,2.71,6.21,8.44,9.22,5.76,3.01,11.3,3.76,12.38,1.67,1.08-2.08-2.71-6.21-8.44-9.22-5.76-2.97-11.3-3.72-12.38-1.67Z"/>
          <path class="cls-3" d="m1026.13,271.27c27,.78,50.57,23.8,55.18,54.89-5.47,5.24-12.42,8.78-20.27,9.67-20.42,2.38-39.05-13.76-41.61-36-1.26-10.56,1.38-20.64,6.69-28.56Z"/>
        </g>
        <ellipse class="cls-3" cx="793.74" cy="477.83" rx="56.22" ry="67.9" transform="translate(300.92 1262.35) rotate(-88.91)"/>
        <g>
          <path class="cls-4" d="m925.02,525.85c-59.83-87.61-146.44-45.44-160.42-31.53-3.27,3.27-6.43,6.4-9.56,9.45-5.8,4.46-11.08,9.33-15.88,14.54-11.79,9.82-22.46,15.8-32.65,14.58-7.21-.86-21.2,22.76-26.22,51.39,14.73-.33,29.01-2.42,42.39-6.28-10.37,14.09-26.03,23.72-44.21,28.22.37,27.52,11.68,55.22,46.26,67.86,0,0,19.26,10.08,42.32,11.94l.41,107.43,115.57-.45,6.51-97.87c1.82-1.19,3.64-2.38,5.43-3.68,54.29-38.9,66.53-112.19,30.05-165.59Z"/>
          <path class="cls-3" d="m767.5,797.16c-2.05,0-3.72-1.67-3.72-3.72l-.41-104.08c-20.9-2.42-37.86-10.75-40.09-11.9-39.45-14.5-48.16-46.71-48.49-71.21-.04-1.71,1.15-3.24,2.83-3.64,13.68-3.38,25.4-9.59,34.47-18.15-10.19,2.12-20.79,3.31-31.68,3.53-1.12,0-2.19-.45-2.9-1.3-.71-.86-1.04-1.97-.86-3.05,4.61-26.29,18.89-55.67,30.31-54.44,8.03.93,17.18-3.24,29.64-13.61,4.83-5.28,10.23-10.19,15.99-14.65,3.05-2.97,6.17-6.06,9.37-9.26,9.78-9.74,43.51-26.51,80.62-23.02,33.95,3.2,62.7,21.75,85.45,55.07,38.19,55.93,24.62,130.93-30.94,170.76-1.34.97-2.68,1.86-4.02,2.75l-6.36,96.01c-.11,1.93-1.75,3.46-3.68,3.46l-115.54.45h0Zm-85.19-188.13c.97,21.79,9.63,49.05,43.73,61.51.15.04.3.11.45.19.19.11,18.93,9.74,40.87,11.53,1.93.15,3.42,1.75,3.42,3.68l.41,103.71,108.36-.41,6.28-94.42c.07-1.19.71-2.23,1.71-2.9,1.78-1.15,3.53-2.31,5.28-3.57,52.25-37.45,65.04-107.95,29.15-160.5h0c-21.46-31.42-48.38-48.9-80.02-51.87-36.96-3.46-68.13,14.35-74.67,20.86-3.27,3.27-6.47,6.43-9.59,9.45-.11.11-.22.19-.33.3-5.58,4.28-10.75,9.04-15.4,14.09-.11.11-.22.22-.37.33-14.28,11.9-25.21,16.66-35.48,15.43-3.72.3-15.73,17.81-21.23,43.81,12.83-.63,25.18-2.6,36.81-5.95,1.52-.45,3.16.15,4.09,1.45.89,1.3.89,3.05-.04,4.31-10.15,13.91-25.1,23.84-43.43,28.97Z"/>
        </g>
        <circle class="cls-3" cx="746.96" cy="759.22" r="60.09"/>
        <path class="cls-3" d="m911.41,467.06c-37.52-21.46-81.7-21.01-118.51-2.86,11.3,2.94,22.31,7.25,32.84,13.28,71.25,40.76,91.78,138.78,45.93,218.95-2.57,4.46-5.28,8.74-8.11,12.87,37.45-6.25,72.29-29.08,93-65.3,35.96-62.84,15.77-142.09-45.14-176.93Z"/>
        <path class="cls-3" d="m784.86,455.87s9.45,34.43,37.74,51.58c14.95,9.07-13.98,5.76-12.12,23.8,14.13,135.13,24.39,160.83,24.39,160.83,2.31,11.64,11.9,20.38,23.69,21.64l35.48,3.72,11.79-32.43,20.79-140.23s-70.91-106.61-141.75-88.91Z"/>
        <path class="cls-3" d="m785.87,533.44c-.71,0-1.41-.19-2.05-.59-1.71-1.12-2.19-3.42-1.08-5.17,1.6-2.42,1.82-8.52-.59-14.17-1.41-3.35-4.98-9.15-12.64-10.52-2.01-.37-3.35-2.31-3.01-4.31.37-2.01,2.31-3.35,4.31-3.01,8.22,1.49,14.65,6.81,18.15,14.91,3.24,7.51,3.2,16.25-.04,21.2-.63,1.08-1.82,1.67-3.05,1.67Z"/>
        <path class="cls-3" d="m754.44,535.89c-3.16,1.75-6.77,1.34-8.03-.93s.26-5.54,3.46-7.29c3.16-1.75,6.77-1.34,8.03.93s-.3,5.54-3.46,7.29Z"/>
        <path class="cls-3" d="m815.24,519.23s-49.31,34.55-43.69,59.98c5.62,25.44,50.09,31.35,44.18,74.82-5.88,43.47-13.54,64.7-66.38,66.41-70.47,2.27-84.86,14.91-85.6,54.4-.74,39.53,169.01-2.94,169.01-2.94,0,0,62.99-62.62-17.51-252.68Z"/>
        <circle class="cls-4" cx="810.92" cy="624.3" r="34.73"/>
        <path class="cls-3" d="m795.16,636.11h-.07c-2.05-.04-3.68-1.75-3.64-3.79.33-16.96,25.99-24.32,27.07-24.62,1.97-.56,4.02.59,4.57,2.57s-.59,4.02-2.57,4.57c-5.95,1.67-21.46,8.11-21.64,17.59-.04,2.08-1.71,3.68-3.72,3.68Z"/>
        <circle class="cls-3" cx="968.97" cy="734.1" r="59.46" transform="translate(-235.28 900.18) rotate(-45)"/>
        <g>
          <path class="cls-4" d="m1085.85,834.24c-16.29-22.76-42.36-39.75-73.81-45.85l-276.11-53.59c-52.06-10.11-105.72,9.63-134.32,49.46-11.08,15.43-23.46,32.35-36.52,49.98h520.76Z"/>
          <path class="cls-3" d="m1085.85,837.95c-1.15,0-2.31-.56-3.01-1.56-16.36-22.83-41.76-38.6-71.51-44.36l-276.11-53.59c-50.46-9.78-102.93,9.48-130.6,47.97-10.45,14.58-22.42,30.94-36.55,50.02-1.23,1.67-3.53,2.01-5.21.78-1.64-1.23-2.01-3.57-.78-5.21,14.09-19.04,26.03-35.36,36.48-49.9,29.3-40.79,84.78-61.28,138.04-50.95l276.11,53.59c31.65,6.14,58.68,22.94,76.12,47.34,1.19,1.67.82,3.98-.86,5.21-.59.45-1.38.67-2.12.67Z"/>
        </g>
        <path class="cls-3" d="m852.09,446.94c33.77-16.59,150.6,21.08,135.17,140.42-7.66,59.31-23.09,148.56-5.43,179.27,17.66,30.75,15.66,9.07-8.11,32.95-23.76,23.87-115.02,15.28-131.9-3.31-16.88-18.56-61.13-4.09,6.81-113.27,67.94-109.18,1.12-165.18-5.91-169.38-7.03-4.13-40.16-42.32,9.37-66.67Z"/>
        <circle class="cls-3" cx="874.66" cy="753.31" r="74.08"/>
        <ellipse class="cls-3" cx="128.76" cy="423.82" rx="54.03" ry="44.73" transform="translate(-64.42 25.22) rotate(-8.96)"/>
        <g>
          <path class="cls-4" d="m298.24,538.61c-18.63-1.97-35.48-9.33-47.67-21.9,13.76,1.97,28.19,2.08,42.84.41-8.89-27.67-25.99-49.16-33.02-47.3-9.93,2.6-21.34-1.86-34.36-9.97-5.43-4.5-11.38-8.59-17.7-12.23-3.5-2.57-7.07-5.24-10.75-8.03-15.73-11.86-107.28-41.8-154.58,53.21-26.44,53.1-9.93,117.17,38.6,151.42l-32.91,121.23,141.87-25.18,25.06-109.36c25.25-3.87,46.07-18.74,46.07-18.74,32.58-17.25,39.94-46.22,36.55-73.55Z"/>
          <path class="cls-3" d="m48.72,769.16c-1.04,0-2.05-.45-2.75-1.23-.86-.93-1.19-2.27-.86-3.5l32.24-118.74c-48.71-35.85-64.59-100.44-37.63-154.58,18-36.15,43.95-58.46,77.12-66.27,36.29-8.55,71.99,3.42,83.04,11.75,3.61,2.71,7.14,5.35,10.56,7.88,6.32,3.61,12.31,7.77,17.85,12.31,13.76,8.55,23.39,11.45,31.24,9.41,11.16-2.9,29.3,24.36,37.48,49.76.33,1.04.19,2.23-.41,3.16s-1.6,1.56-2.71,1.67c-10.82,1.26-21.49,1.52-31.87.86,10.15,7.25,22.61,11.79,36.63,13.28,1.71.19,3.09,1.52,3.31,3.24,3.01,24.32-1.19,57.42-38.26,77.16-2.31,1.6-21.34,14.5-44.96,18.82l-24.51,106.95c-.33,1.45-1.49,2.57-2.97,2.83l-141.87,25.18c-.26.04-.45.07-.67.07Zm94.08-339.85c-7.73,0-15.92.78-24.25,2.75-30.94,7.29-55.22,28.26-72.18,62.36-25.7,51.61-9.97,113.31,37.41,146.74,1.26.89,1.86,2.49,1.45,4.02l-31.39,115.54,133.65-23.72,24.51-106.95c.33-1.49,1.56-2.6,3.05-2.83,24.02-3.68,44.29-17.92,44.47-18.07.15-.11.26-.19.41-.26,32.09-17.03,36.93-45.22,34.88-66.94-18.85-2.57-35.03-10.37-46.97-22.65-1.12-1.15-1.38-2.86-.63-4.28.71-1.41,2.27-2.23,3.83-2.01,11.97,1.71,24.51,2.01,37.3.86-8.96-24.8-23.09-40.5-27-40.5h-.07c-9.97,2.6-21.46-.59-37.19-10.45-.15-.07-.26-.19-.41-.3-5.32-4.39-11.08-8.4-17.18-11.86-.11-.07-.26-.15-.37-.22-3.5-2.57-7.07-5.28-10.78-8.07-5.65-4.24-26.7-13.16-52.54-13.16Z"/>
        </g>
        <path class="cls-3" d="m48.46,432.7c34.21-26.4,78.05-32.02,116.99-19.08-10.78,4.43-21.12,10.26-30.68,17.63-64.96,50.13-71.92,150.05-15.47,223.19,3.12,4.05,6.43,7.92,9.78,11.64-37.97-1.04-75.6-18.93-101.07-51.95-44.25-57.34-35.07-138.56,20.45-181.43Z"/>
        <path class="cls-3" d="m172.29,404.25s-4.61,35.4-30.31,56.26c-13.57,11.04,14.65,3.79,15.25,21.9,4.54,135.8-2.12,162.65-2.12,162.65-.71,11.83-9,21.83-20.49,24.69l-59.46,4.5,3.31-19.78-34.4-142.72s55.63-115.31,128.22-107.51Z"/>
        <path class="cls-3" d="m182.59,486.02c-.89,0-1.78-.33-2.49-.97-3.64-3.31-5.88-10.78-5.35-18.18.52-7.73,3.87-14.06,9.33-17.81,1.71-1.15,4.02-.71,5.17,1,1.15,1.71.71,4.02-1,5.17-4.8,3.27-5.88,9.04-6.1,12.16-.41,5.84,1.45,10.82,2.9,12.16,1.52,1.38,1.64,3.72.26,5.24-.71.82-1.71,1.23-2.71,1.23Z"/>
        <path class="cls-3" d="m213.38,479.37c3.38,1.3,6.88.41,7.81-2.05.93-2.42-1.04-5.47-4.43-6.77s-6.88-.41-7.81,2.05c-.93,2.45,1.04,5.47,4.43,6.77Z"/>
        <path class="cls-4" d="m203.9,569.28c2.97,18.97-9.97,36.74-28.89,39.71-18.96,2.97-36.74-9.97-39.71-28.89s9.97-36.74,28.89-39.71c18.96-3.01,36.74,9.93,39.71,28.89Z"/>
        <path class="cls-3" d="m186.27,584.27c-1.78,0-3.38-1.3-3.68-3.12-1.49-9.37-17.74-13.61-23.84-14.47-2.05-.3-3.46-2.16-3.16-4.2.26-2.05,2.16-3.42,4.16-3.2,1.12.15,27.56,3.94,30.2,20.68.33,2.05-1.08,3.94-3.09,4.24-.19.04-.41.07-.59.07Z"/>
        <circle class="cls-3" cx="952.56" cy="771.04" r="68.94"/>
        <polygon class="cls-3" points="138.27 505.25 189.88 535.56 181.25 549.87 139.27 535.07 138.27 505.25"/>
        <path class="cls-5" d="m15.78,834.24v-123.64h143.95c64.07,0,125.5,25.44,170.83,70.77l53.73,53.73s-365.21-.86-368.52-.86Z"/>
        <path class="cls-1" d="m828.33,110.29h-.04l-46.82-.71c-1.86-.04-3.35-1.56-3.35-3.42.04-1.86,1.64-3.27,3.42-3.35l46.82.71c1.86.04,3.35,1.56,3.35,3.42-.04,1.86-1.56,3.35-3.38,3.35Z"/>
        <path class="cls-1" d="m804.09,165.7c-.37,0-.71-.07-1.08-.19l-24.39-8.18c-1.78-.59-2.71-2.49-2.12-4.28.59-1.75,2.49-2.71,4.28-2.12l24.39,8.18c1.78.59,2.71,2.49,2.12,4.28-.45,1.41-1.78,2.31-3.2,2.31Z"/>
        <path class="cls-1" d="m221.38,110.29c-1.86,0-3.35-1.49-3.38-3.35s1.45-3.42,3.35-3.42l46.82-.71c1.82,0,3.38,1.45,3.42,3.35.04,1.86-1.45,3.42-3.35,3.42l-46.82.71s0,0-.04,0Z"/>
        <path class="cls-1" d="m245.62,165.7c-1.41,0-2.75-.89-3.2-2.31-.59-1.78.37-3.68,2.12-4.28l24.39-8.18c1.78-.59,3.68.37,4.28,2.12.59,1.78-.37,3.68-2.12,4.28l-24.39,8.18c-.37.11-.74.19-1.08.19Z"/>
        <path class="cls-1" d="m779.69,61.58c-1.41,0-2.75-.89-3.2-2.31-.59-1.78.37-3.68,2.12-4.28l24.39-8.18c1.78-.59,3.68.37,4.28,2.12.59,1.78-.37,3.68-2.12,4.28l-24.39,8.18c-.37.11-.74.19-1.08.19Z"/>
        <path class="cls-1" d="m270.02,61.58c-.37,0-.71-.07-1.08-.19l-24.39-8.18c-1.78-.59-2.71-2.49-2.12-4.28s2.53-2.71,4.28-2.12l24.39,8.18c1.78.59,2.71,2.49,2.12,4.28-.45,1.41-1.78,2.31-3.2,2.31Z"/>
      </g>
    </g>
  </g>
</svg>